<svg xmlns="http://www.w3.org/2000/svg" width="1135.067" height="1178.146" viewBox="0 0 1135.067 1178.146">
  <path id="courseWorkBlob" d="M463.541,906.948c75.284,31.669,153.633,35.351,217.735,6.765,68.965-30.753,138.5-82.255,151.578-171.446,12.917-88.083-43.8-187.614-85.544-278.908C714.431,391.443,660.516,338.1,617.8,271.883,568.525,195.5,547.53,87.04,477.035,44.363,406.783,1.834,334.078,34.2,273.152,63.235c-54.644,26.037-82.669,87.743-122.319,136.559C107.8,252.786,43.683,285.607,30.3,362.273,16.06,443.834,24.208,548.144,76.434,625.886c51.889,77.247,143.721,72.454,213.789,123.328,62.656,45.491,106.67,129.7,173.318,157.733" transform="matrix(0.891, 0.454, -0.454, 0.891, 402.161, -32.205)" fill="#0f2641"/>
</svg>
