<svg xmlns="http://www.w3.org/2000/svg" width="21.454" height="23.675" viewBox="0 0 21.454 23.675">
  <path id="user-graduate" d="M15.3,15.353l-4.569,4.569L6.158,15.353A6.422,6.422,0,0,0,0,21.76v.46c0,1.269.881,1.453,2.15,1.453H19.393c1.269,0,2.061-.184,2.061-1.453v-.46A6.422,6.422,0,0,0,15.3,15.353ZM.651,3.821l.306.072v2.8A1.106,1.106,0,0,0,.915,8.605L.168,11.588c-.081.33.1.67.364.67h2c.263,0,.445-.34.364-.67L2.15,8.605a1.106,1.106,0,0,0-.043-1.916V4.171l3.161.761a6.119,6.119,0,1,0,11.589,2.73,6.02,6.02,0,0,0-.67-2.73L20.8,3.821a.762.762,0,0,0,0-1.508L11.68.11a4.114,4.114,0,0,0-1.9,0L.651,2.308a.765.765,0,0,0,0,1.513Z" transform="translate(0 0.002)" fill="#fff"/>
</svg>
