<svg xmlns="http://www.w3.org/2000/svg" width="821.471" height="978.024" viewBox="0 0 821.471 978.024">
  <path id="ContactBlob" d="M480.97,793.2C569.35,813.192,665.2,807.51,747.8,774.272c88.863-35.759,181.173-90.358,209.044-172.562C984.37,520.527,927.786,437,888.535,359.2c-30.92-61.286-90.16-103.345-133.933-158.347-50.484-63.444-61.958-159.161-143-189.666-80.757-30.4-174.433,7.25-253.185,40.53-70.631,29.845-113.249,88.9-168.455,137.63-59.913,52.9-143.094,89.97-169.688,160.877C-8.013,425.655-11.785,519.1,42.152,583.43c53.589,63.924,167.137,49.022,246.564,86.992C359.743,704.373,402.728,775.5,480.97,793.2" transform="translate(16.826 978.024) rotate(-91)" fill="#102945" opacity="0.57"/>
</svg>
