<svg xmlns="http://www.w3.org/2000/svg" width="1246.219" height="1299.505" viewBox="0 0 1246.219 1299.505">
  <path id="degreesBlob" d="M463.556,863.624c91.272,15.457,192.617,2.076,282.395-40.675,96.587-45.994,198.426-113,234.841-205.623,35.966-91.476-16.369-179.286-50.962-262.074-27.25-65.215-85.957-107.144-127.273-164.481C754.908,124.633,751.088,20.045,668.449-7.537,586.1-35.023,484.282,13.41,398.547,55.922,321.653,94.046,271.717,162.267,209.426,220.049,141.822,282.771,51.1,329.79,17,409.876c-36.274,85.2-48.3,188.413,2.906,255.273,50.875,66.436,171.639,41.584,251.939,77.509,71.808,32.123,110.9,107.282,191.707,120.966" transform="matrix(-0.454, 0.891, -0.891, -0.454, 1225.787, 407.757)" fill="#102945" opacity="0.57"/>
</svg>
