<svg xmlns="http://www.w3.org/2000/svg" width="2826.172" height="2310.075" viewBox="0 0 2826.172 2310.075">
  <g id="Mid" transform="translate(435.152 -124.707)">
    <path id="Path_100" data-name="Path 100" d="M362.7,554.28l46.79,63.95,10.844-66.214Z" transform="translate(2068.567 -484.668) rotate(56)" fill="#0f335a"/>
    <path id="Path_194" data-name="Path 194" d="M0,811.3c150.1-12.568,221.889-189.964,336.5-287.7,96.181-82.023,204.117-141.934,283.062-240.657,99.476-124.4,258.309-248.257,233.75-405.632C828.693-280.433,634.239-342.945,506.867-439.2,405.43-515.862,307.718-597.023,184.445-628.164,64.152-658.553-57.4-632.345-179.9-612.7c-140.123,22.474-295.937,14.456-403,107.607-111.211,96.76-143.4,252.2-175.823,396-34.729,154.053-94.608,325.714-18.011,463.813,76.3,137.557,266.361,148.719,401.967,228.43C-246.082,658.8-148.754,823.758,0,811.3" transform="translate(378.794 1622.812)" fill="#0b2239"/>
    <path id="Path_195" data-name="Path 195" d="M1943,484.287c91.62,23.345,191.09,16.265,276.92-23.391,92.34-42.663,188.33-107.644,217.57-205.071,28.88-96.217-29.5-194.9-69.92-286.869-31.84-72.445-93.14-122.022-138.34-186.979-52.13-74.928-63.66-188.208-147.62-224.025-83.67-35.692-181.01,9.226-262.85,48.917-73.4,35.594-117.85,105.668-175.32,163.565-62.37,62.847-148.82,107.045-176.69,191.092-29.65,89.413-33.93,200.056,21.78,276.023,55.35,75.484,173.22,57.424,255.48,102.085,73.56,39.935,117.88,123.987,198.99,144.653" transform="translate(-54.206 1277.834)" fill="#113255"/>
    <path id="Path_197" data-name="Path 197" d="M948.78,482.57l12.22-3.8,6.4,11.09,12.23-3.81,6.4,11.09,12.23-3.81,6.4,11.1m-58.8-14.41,12.23-3.8,6.4,11.09,12.23-3.81,6.4,11.09,12.22-3.81,6.4,11.1m-58.79-14.41,12.23-3.8,6.4,11.09,12.22-3.81,6.4,11.09,12.23-3.8,6.4,11.09" transform="translate(394.348 438.175)" fill="none" stroke="#1c85ee" stroke-width="1" stroke-dasharray="2 2"/>
    <path id="Path_198" data-name="Path 198" d="M95.87,372.48a5.6,5.6,0,1,0-1.07,7.85,5.6,5.6,0,0,0,1.07-7.85Zm-12.74,9.68a5.6,5.6,0,1,0-1.07,7.85,5.6,5.6,0,0,0,1.07-7.85Zm-12.74,9.68a5.6,5.6,0,1,0-1.075,7.846,5.6,5.6,0,0,0,1.075-7.846Zm-12.74,9.68a5.6,5.6,0,1,0-1.075,7.846,5.6,5.6,0,0,0,1.075-7.846Zm54.02-61.13a5.6,5.6,0,1,0,.88,5.667,5.6,5.6,0,0,0-.88-5.667Zm-12.74,9.67a5.6,5.6,0,1,0-1.07,7.85A5.6,5.6,0,0,0,98.93,350.06Zm-12.74,9.68a5.6,5.6,0,1,0-1.07,7.85,5.6,5.6,0,0,0,1.07-7.85Zm-12.74,9.68a5.6,5.6,0,1,0-1.075,7.846,5.6,5.6,0,0,0,1.075-7.846Zm54.03-61.13a5.6,5.6,0,1,0-1.075,7.846,5.6,5.6,0,0,0,1.075-7.846Zm-12.74,9.68a5.6,5.6,0,1,0-1.075,7.846,5.6,5.6,0,0,0,1.075-7.846ZM102,327.64a5.6,5.6,0,1,0-1.07,7.85,5.6,5.6,0,0,0,1.07-7.85Zm-12.74,9.68a5.6,5.6,0,1,0-1.07,7.85,5.6,5.6,0,0,0,1.07-7.85Z" transform="translate(-21.57 88.652)" fill="none" stroke="#12243d" stroke-width="1.21"/>
  </g>
</svg>
